# xmcd
#
# Track frame offsets:
#	225
#	17318
#	33927
#	50965
#	65303
#	77555
#	95451
#	115073
#	135021
#	150419
#	164927
#	182909
#	195881
#	211458
#	225347
#	242101
#	261493
#	278170
#	292374
#	309178
#
# Disc length: 4422 seconds
#
# Revision: 1
# Processed by: cddbd v1.5.2PL0 Copyright (c) Steve Scherf et al.
# Submitted via: audiograbber 1.83.01
#
DISCID=10114314
DTITLE=verschiedene - Die goldene Schlagergala-Folge 2-Loreley-Express
DYEAR=1900
DGENRE=deutsche Schlager
TTITLE0=Jügen Drews - Durch and Durch
TTITLE1=Nicole - Die zweite Liebe
TTITLE2=Andreas Elsholz - Weil ich Dich liebe
TTITLE3=Peter Orloff and Original Schwarzmeer Kosaken Chor - Träume der Taiga
TTITLE4=Marion Maerz - Wer Liebe sucht
TTITLE5=Christian Anders - California Blue
TTITLE6=Valerie`s Garten - Niemand so wie Du
TTITLE7=Bernd Clüver - Hinter deinem Fenster
TTITLE8=Nina and Mike - Ich hab` Dir nie den Himmel versprochen
TTITLE9=Christopher Barker - Bist Du einsam heut` Nacht
TTITLE10=Bernhard Brink - Viel zu jung
TTITLE11=Stella Haag - Zwei Karten für`s Kino
TTITLE12=Ibo - Jetzt oder nie
TTITLE13=Bata Illic - Symphonie der Herzen(Abschiedsmelodie)
TTITLE14=Nadine Norell - Fliege weißer Adler
TTITLE15=Roy Black - Maria Magdalena
TTITLE16=Heino - Glück total
TTITLE17=Regina Thoss - Es glitzern silbern die Sterne
TTITLE18=Patrick Lindner - Ich will Dir immer wieder rote Rosen schenken
TTITLE19=Peter Orloff - Bravo, Peter!(Die Schlagerparty geht weiter)
EXTD=Aus der RPR-Zwei Rundfunkwerbung
EXTT0=
EXTT1=
EXTT2=
EXTT3=
EXTT4=
EXTT5=
EXTT6=
EXTT7=
EXTT8=
EXTT9=
EXTT10=
EXTT11=
EXTT12=
EXTT13=
EXTT14=
EXTT15=
EXTT16=
EXTT17=
EXTT18=
EXTT19=
PLAYORDER=
